<mxfile host="app.diagrams.net" modified="2023-12-04T11:25:37.241Z" agent="Mozilla/5.0 (Windows NT 10.0; Win64; x64) AppleWebKit/537.36 (KHTML, like Gecko) Chrome/119.0.0.0 Safari/537.36 Edg/119.0.0.0" etag="mWxEqafJ0oYvs8QADGGF" version="22.1.5" type="github">
  <diagram name="Page-1" id="TDVQcHVt3rfcRqhtHT62">
    <mxGraphModel dx="2026" dy="1145" grid="1" gridSize="10" guides="1" tooltips="1" connect="1" arrows="1" fold="1" page="1" pageScale="1" pageWidth="850" pageHeight="1100" math="0" shadow="0">
      <root>
        <mxCell id="0" />
        <mxCell id="1" parent="0" />
        <mxCell id="z3zrKt3jgerHkWOfx8Rd-16" value="Abaco" style="rounded=0;whiteSpace=wrap;html=1;dashed=1;verticalAlign=top;" parent="1" vertex="1">
          <mxGeometry x="190" y="230" width="350" height="200" as="geometry" />
        </mxCell>
        <mxCell id="z3zrKt3jgerHkWOfx8Rd-8" value="Registry" style="rounded=1;whiteSpace=wrap;html=1;verticalAlign=top;" parent="1" vertex="1">
          <mxGeometry x="370" y="280" width="140" height="130" as="geometry" />
        </mxCell>
        <mxCell id="z3zrKt3jgerHkWOfx8Rd-3" value="" style="edgeStyle=orthogonalEdgeStyle;rounded=0;orthogonalLoop=1;jettySize=auto;html=1;" parent="1" source="z3zrKt3jgerHkWOfx8Rd-1" target="z3zrKt3jgerHkWOfx8Rd-2" edge="1">
          <mxGeometry relative="1" as="geometry" />
        </mxCell>
        <mxCell id="z3zrKt3jgerHkWOfx8Rd-1" value="Defra/RPA" style="image;sketch=0;aspect=fixed;html=1;points=[];align=center;fontSize=12;image=img/lib/mscae/Person.svg;" parent="1" vertex="1">
          <mxGeometry x="40" y="320" width="37" height="50" as="geometry" />
        </mxCell>
        <mxCell id="z3zrKt3jgerHkWOfx8Rd-9" style="rounded=0;orthogonalLoop=1;jettySize=auto;html=1;entryX=0;entryY=0.5;entryDx=0;entryDy=0;" parent="1" source="z3zrKt3jgerHkWOfx8Rd-2" target="z3zrKt3jgerHkWOfx8Rd-5" edge="1">
          <mxGeometry relative="1" as="geometry" />
        </mxCell>
        <mxCell id="z3zrKt3jgerHkWOfx8Rd-10" style="rounded=0;orthogonalLoop=1;jettySize=auto;html=1;" parent="1" source="z3zrKt3jgerHkWOfx8Rd-2" target="z3zrKt3jgerHkWOfx8Rd-6" edge="1">
          <mxGeometry relative="1" as="geometry" />
        </mxCell>
        <mxCell id="z3zrKt3jgerHkWOfx8Rd-11" style="rounded=0;orthogonalLoop=1;jettySize=auto;html=1;entryX=0;entryY=0.5;entryDx=0;entryDy=0;" parent="1" source="z3zrKt3jgerHkWOfx8Rd-2" target="z3zrKt3jgerHkWOfx8Rd-7" edge="1">
          <mxGeometry relative="1" as="geometry" />
        </mxCell>
        <mxCell id="z3zrKt3jgerHkWOfx8Rd-2" value="Abaco" style="image;sketch=0;aspect=fixed;html=1;points=[];align=center;fontSize=12;image=img/lib/mscae/Person.svg;" parent="1" vertex="1">
          <mxGeometry x="210" y="320" width="37" height="50" as="geometry" />
        </mxCell>
        <mxCell id="z3zrKt3jgerHkWOfx8Rd-4" value="Requirements" style="outlineConnect=0;dashed=0;verticalLabelPosition=bottom;verticalAlign=top;align=center;html=1;shape=mxgraph.aws3.permissions_2;fillColor=#D2D3D3;gradientColor=none;" parent="1" vertex="1">
          <mxGeometry x="134" y="308" width="26.5" height="33" as="geometry" />
        </mxCell>
        <mxCell id="z3zrKt3jgerHkWOfx8Rd-5" value="App 1" style="rounded=1;whiteSpace=wrap;html=1;" parent="1" vertex="1">
          <mxGeometry x="380" y="315" width="120" height="25" as="geometry" />
        </mxCell>
        <mxCell id="z3zrKt3jgerHkWOfx8Rd-6" value="App 2" style="rounded=1;whiteSpace=wrap;html=1;" parent="1" vertex="1">
          <mxGeometry x="380" y="345" width="120" height="25" as="geometry" />
        </mxCell>
        <mxCell id="z3zrKt3jgerHkWOfx8Rd-7" value="App 3" style="rounded=1;whiteSpace=wrap;html=1;" parent="1" vertex="1">
          <mxGeometry x="380" y="376" width="120" height="25" as="geometry" />
        </mxCell>
        <mxCell id="z3zrKt3jgerHkWOfx8Rd-15" value="Publish new version of affected apps" style="text;html=1;strokeColor=none;fillColor=none;align=center;verticalAlign=middle;whiteSpace=wrap;rounded=0;" parent="1" vertex="1">
          <mxGeometry x="270" y="380" width="80" height="30" as="geometry" />
        </mxCell>
        <mxCell id="z3zrKt3jgerHkWOfx8Rd-21" style="edgeStyle=orthogonalEdgeStyle;rounded=0;orthogonalLoop=1;jettySize=auto;html=1;" parent="1" source="z3zrKt3jgerHkWOfx8Rd-17" target="z3zrKt3jgerHkWOfx8Rd-20" edge="1">
          <mxGeometry relative="1" as="geometry" />
        </mxCell>
        <mxCell id="z3zrKt3jgerHkWOfx8Rd-17" value="DDTS" style="image;sketch=0;aspect=fixed;html=1;points=[];align=center;fontSize=12;image=img/lib/mscae/Person.svg;" parent="1" vertex="1">
          <mxGeometry x="500" y="470" width="37" height="50" as="geometry" />
        </mxCell>
        <mxCell id="z3zrKt3jgerHkWOfx8Rd-18" value="Updated&lt;br&gt;Manifest" style="sketch=0;pointerEvents=1;shadow=0;dashed=0;html=1;strokeColor=none;fillColor=#005F4B;labelPosition=center;verticalLabelPosition=bottom;verticalAlign=top;align=center;outlineConnect=0;shape=mxgraph.veeam2.task_list;" parent="1" vertex="1">
          <mxGeometry x="586" y="462" width="20" height="29" as="geometry" />
        </mxCell>
        <mxCell id="z3zrKt3jgerHkWOfx8Rd-23" value="" style="edgeStyle=orthogonalEdgeStyle;rounded=0;orthogonalLoop=1;jettySize=auto;html=1;" parent="1" source="z3zrKt3jgerHkWOfx8Rd-20" target="z3zrKt3jgerHkWOfx8Rd-22" edge="1">
          <mxGeometry relative="1" as="geometry" />
        </mxCell>
        <mxCell id="z3zrKt3jgerHkWOfx8Rd-20" value="Source code" style="shape=image;html=1;verticalAlign=top;verticalLabelPosition=bottom;labelBackgroundColor=#ffffff;imageAspect=0;aspect=fixed;image=https://cdn1.iconfinder.com/data/icons/picons-social/57/github_rounded-128.png" parent="1" vertex="1">
          <mxGeometry x="655" y="476" width="38" height="38" as="geometry" />
        </mxCell>
        <mxCell id="tWFHTNuk33SmjEc6UH_G-2" value="Get updated versions from manifest" style="edgeStyle=orthogonalEdgeStyle;rounded=0;orthogonalLoop=1;jettySize=auto;html=1;entryX=1;entryY=0.5;entryDx=0;entryDy=0;dashed=1;" edge="1" parent="1" source="z3zrKt3jgerHkWOfx8Rd-22" target="z3zrKt3jgerHkWOfx8Rd-8">
          <mxGeometry relative="1" as="geometry">
            <Array as="points">
              <mxPoint x="850" y="345" />
            </Array>
          </mxGeometry>
        </mxCell>
        <mxCell id="z3zrKt3jgerHkWOfx8Rd-22" value="CI/CD pipeline" style="whiteSpace=wrap;html=1;verticalAlign=top;labelBackgroundColor=#ffffff;" parent="1" vertex="1">
          <mxGeometry x="790" y="465" width="120" height="60" as="geometry" />
        </mxCell>
        <mxCell id="tWFHTNuk33SmjEc6UH_G-1" value="" style="shape=image;verticalLabelPosition=bottom;labelBackgroundColor=default;verticalAlign=top;aspect=fixed;imageAspect=0;image=https://dwglogo.com/wp-content/uploads/2017/11/1500px_Jenkins_logo.png;" vertex="1" parent="1">
          <mxGeometry x="806" y="476" width="81.36" height="56" as="geometry" />
        </mxCell>
        <mxCell id="tWFHTNuk33SmjEc6UH_G-3" value="FCP Platform" style="whiteSpace=wrap;html=1;verticalAlign=top;labelBackgroundColor=#ffffff;" vertex="1" parent="1">
          <mxGeometry x="990" y="392.5" width="310" height="337.5" as="geometry" />
        </mxCell>
        <mxCell id="tWFHTNuk33SmjEc6UH_G-5" value="" style="image;aspect=fixed;html=1;points=[];align=center;fontSize=12;image=img/lib/azure2/compute/Kubernetes_Services.svg;" vertex="1" parent="1">
          <mxGeometry x="1133" y="420" width="34" height="30" as="geometry" />
        </mxCell>
        <mxCell id="tWFHTNuk33SmjEc6UH_G-6" value="Abaco Agri" style="ellipse;whiteSpace=wrap;html=1;aspect=fixed;" vertex="1" parent="1">
          <mxGeometry x="1010" y="455" width="80" height="80" as="geometry" />
        </mxCell>
        <mxCell id="tWFHTNuk33SmjEc6UH_G-4" value="" style="edgeStyle=orthogonalEdgeStyle;rounded=0;orthogonalLoop=1;jettySize=auto;html=1;entryX=0;entryY=0.5;entryDx=0;entryDy=0;" edge="1" parent="1" source="z3zrKt3jgerHkWOfx8Rd-22" target="tWFHTNuk33SmjEc6UH_G-6">
          <mxGeometry relative="1" as="geometry" />
        </mxCell>
        <mxCell id="tWFHTNuk33SmjEc6UH_G-15" value="Deploy" style="edgeLabel;html=1;align=center;verticalAlign=middle;resizable=0;points=[];" vertex="1" connectable="0" parent="tWFHTNuk33SmjEc6UH_G-4">
          <mxGeometry x="-0.14" y="1" relative="1" as="geometry">
            <mxPoint as="offset" />
          </mxGeometry>
        </mxCell>
        <mxCell id="tWFHTNuk33SmjEc6UH_G-7" value="Payment Hub" style="ellipse;whiteSpace=wrap;html=1;aspect=fixed;" vertex="1" parent="1">
          <mxGeometry x="1110" y="455" width="80" height="80" as="geometry" />
        </mxCell>
        <mxCell id="tWFHTNuk33SmjEc6UH_G-8" value="Grants" style="ellipse;whiteSpace=wrap;html=1;aspect=fixed;" vertex="1" parent="1">
          <mxGeometry x="1210" y="455" width="80" height="80" as="geometry" />
        </mxCell>
        <mxCell id="tWFHTNuk33SmjEc6UH_G-9" value="Documents" style="ellipse;whiteSpace=wrap;html=1;aspect=fixed;" vertex="1" parent="1">
          <mxGeometry x="1010" y="550" width="80" height="80" as="geometry" />
        </mxCell>
        <mxCell id="tWFHTNuk33SmjEc6UH_G-10" value="Vet Visits" style="ellipse;whiteSpace=wrap;html=1;aspect=fixed;" vertex="1" parent="1">
          <mxGeometry x="1110" y="550" width="80" height="80" as="geometry" />
        </mxCell>
        <mxCell id="tWFHTNuk33SmjEc6UH_G-11" value="Future Grants" style="ellipse;whiteSpace=wrap;html=1;aspect=fixed;" vertex="1" parent="1">
          <mxGeometry x="1210" y="550" width="80" height="80" as="geometry" />
        </mxCell>
        <mxCell id="tWFHTNuk33SmjEc6UH_G-12" value="Progressive Reductions Calculator" style="ellipse;whiteSpace=wrap;html=1;aspect=fixed;" vertex="1" parent="1">
          <mxGeometry x="1010" y="640" width="80" height="80" as="geometry" />
        </mxCell>
        <mxCell id="tWFHTNuk33SmjEc6UH_G-13" value="Demo Service" style="ellipse;whiteSpace=wrap;html=1;aspect=fixed;" vertex="1" parent="1">
          <mxGeometry x="1210" y="640" width="80" height="80" as="geometry" />
        </mxCell>
        <mxCell id="tWFHTNuk33SmjEc6UH_G-14" value="Making Payment Data Public" style="ellipse;whiteSpace=wrap;html=1;aspect=fixed;" vertex="1" parent="1">
          <mxGeometry x="1110" y="640" width="80" height="80" as="geometry" />
        </mxCell>
      </root>
    </mxGraphModel>
  </diagram>
</mxfile>
